<svg width="129" height="22" viewBox="0 0 129 22" fill="none" xmlns="http://www.w3.org/2000/svg">
<path d="M3.47612 21V9.492H0.760117V6.86H4.45612L3.47612 7.756V5.6C3.47612 3.84533 3.91478 2.52 4.79212 1.624C5.68812 0.728 6.98545 0.28 8.68412 0.28C9.09478 0.28 9.52412 0.307999 9.97212 0.363999C10.4388 0.419999 10.8401 0.522666 11.1761 0.672V3.416C10.9335 3.32267 10.6441 3.248 10.3081 3.192C9.97212 3.136 9.64545 3.108 9.32812 3.108C8.60012 3.108 8.02145 3.32267 7.59212 3.752C7.16278 4.16267 6.94812 4.83467 6.94812 5.768V7.476L6.44412 6.86H16.2721V21H12.7721V9.492H6.97612V21H3.47612ZM12.5761 4.2V0.783998H16.4681V4.2H12.5761ZM20.0788 21V10.388C20.0788 9.80933 20.0601 9.22133 20.0228 8.624C19.9855 8.02667 19.9295 7.43867 19.8548 6.86H23.2428L23.5228 9.66H23.1868C23.6348 8.67067 24.2975 7.91467 25.1748 7.392C26.0521 6.85067 27.0695 6.58 28.2268 6.58C29.8881 6.58 31.1388 7.04667 31.9788 7.98C32.8188 8.91333 33.2388 10.3693 33.2388 12.348V21H29.7388V12.516C29.7388 11.3773 29.5148 10.5653 29.0668 10.08C28.6375 9.576 27.9841 9.324 27.1068 9.324C26.0241 9.324 25.1655 9.66 24.5308 10.332C23.8961 11.004 23.5788 11.9 23.5788 13.02V21H20.0788ZM42.4099 21.28C41.1779 21.28 40.0952 20.9907 39.1619 20.412C38.2286 19.8147 37.5006 18.9653 36.9779 17.864C36.4552 16.7627 36.1939 15.4467 36.1939 13.916C36.1939 12.3853 36.4552 11.0787 36.9779 9.996C37.5006 8.89467 38.2286 8.05467 39.1619 7.476C40.0952 6.87867 41.1779 6.58 42.4099 6.58C43.6046 6.58 44.6499 6.87867 45.5459 7.476C46.4606 8.05467 47.0672 8.83867 47.3659 9.828H47.0579L47.3659 6.86H50.7259C50.6699 7.43867 50.6139 8.02667 50.5579 8.624C50.5206 9.22133 50.5019 9.80933 50.5019 10.388V21H47.0299L47.0019 18.088H47.3379C47.0392 19.0587 46.4326 19.8333 45.5179 20.412C44.6032 20.9907 43.5672 21.28 42.4099 21.28ZM43.3899 18.592C44.4912 18.592 45.3779 18.2093 46.0499 17.444C46.7219 16.66 47.0579 15.484 47.0579 13.916C47.0579 12.348 46.7219 11.1813 46.0499 10.416C45.3779 9.65067 44.4912 9.268 43.3899 9.268C42.2886 9.268 41.4019 9.65067 40.7299 10.416C40.0579 11.1813 39.7219 12.348 39.7219 13.916C39.7219 15.484 40.0486 16.66 40.7019 17.444C41.3739 18.2093 42.2699 18.592 43.3899 18.592ZM54.3132 21V10.388C54.3132 9.80933 54.2945 9.22133 54.2572 8.624C54.2198 8.02667 54.1638 7.43867 54.0892 6.86H57.4772L57.7572 9.66H57.4212C57.8692 8.67067 58.5318 7.91467 59.4092 7.392C60.2865 6.85067 61.3038 6.58 62.4612 6.58C64.1225 6.58 65.3732 7.04667 66.2132 7.98C67.0532 8.91333 67.4732 10.3693 67.4732 12.348V21H63.9732V12.516C63.9732 11.3773 63.7492 10.5653 63.3012 10.08C62.8718 9.576 62.2185 9.324 61.3412 9.324C60.2585 9.324 59.3998 9.66 58.7652 10.332C58.1305 11.004 57.8132 11.9 57.8132 13.02V21H54.3132ZM77.6803 21.28C76.2243 21.28 74.9456 20.9813 73.8443 20.384C72.7616 19.7867 71.9216 18.9373 71.3243 17.836C70.7269 16.716 70.4283 15.3907 70.4283 13.86C70.4283 12.3293 70.7269 11.0227 71.3243 9.94C71.9403 8.85733 72.7896 8.02667 73.8723 7.448C74.9549 6.86933 76.2243 6.58 77.6803 6.58C78.6136 6.58 79.5189 6.72933 80.3963 7.028C81.2923 7.308 82.0203 7.71867 82.5803 8.26L81.5163 10.696C81.0123 10.2293 80.4429 9.884 79.8083 9.66C79.1923 9.41733 78.5856 9.296 77.9883 9.296C76.7376 9.296 75.7576 9.688 75.0483 10.472C74.3576 11.256 74.0123 12.3947 74.0123 13.888C74.0123 15.3813 74.3576 16.5293 75.0483 17.332C75.7576 18.1347 76.7376 18.536 77.9883 18.536C78.5669 18.536 79.1643 18.424 79.7803 18.2C80.4149 17.976 80.9936 17.6307 81.5163 17.164L82.5803 19.572C82.0016 20.1133 81.2643 20.5333 80.3683 20.832C79.4909 21.1307 78.5949 21.28 77.6803 21.28ZM91.8522 21.28C89.4815 21.28 87.6242 20.6267 86.2802 19.32C84.9362 18.0133 84.2642 16.2213 84.2642 13.944C84.2642 12.4693 84.5535 11.1813 85.1322 10.08C85.7109 8.97867 86.5135 8.12 87.5402 7.504C88.5855 6.888 89.7989 6.58 91.1802 6.58C92.5429 6.58 93.6815 6.86933 94.5962 7.448C95.5109 8.02667 96.2015 8.83867 96.6682 9.884C97.1535 10.9293 97.3962 12.152 97.3962 13.552V14.476H87.0922V12.628H94.9042L94.4282 13.02C94.4282 11.7133 94.1482 10.7147 93.5882 10.024C93.0469 9.33333 92.2535 8.988 91.2082 8.988C90.0509 8.988 89.1549 9.39867 88.5202 10.22C87.9042 11.0413 87.5962 12.1893 87.5962 13.664V14.028C87.5962 15.5587 87.9695 16.7067 88.7162 17.472C89.4815 18.2187 90.5549 18.592 91.9362 18.592C92.7389 18.592 93.4855 18.4893 94.1762 18.284C94.8855 18.06 95.5575 17.7053 96.1922 17.22L97.2282 19.572C96.5562 20.1133 95.7535 20.5333 94.8202 20.832C93.8869 21.1307 92.8975 21.28 91.8522 21.28ZM99.9681 21V17.108H103.888V21H99.9681ZM112.683 21.28C111.451 21.28 110.369 20.9907 109.435 20.412C108.502 19.8147 107.774 18.9653 107.251 17.864C106.729 16.7627 106.467 15.4467 106.467 13.916C106.467 12.3853 106.729 11.0787 107.251 9.996C107.774 8.89467 108.502 8.05467 109.435 7.476C110.369 6.87867 111.451 6.58 112.683 6.58C113.878 6.58 114.923 6.87867 115.819 7.476C116.734 8.05467 117.341 8.83867 117.639 9.828H117.331L117.639 6.86H120.999C120.943 7.43867 120.887 8.02667 120.831 8.624C120.794 9.22133 120.775 9.80933 120.775 10.388V21H117.303L117.275 18.088H117.611C117.313 19.0587 116.706 19.8333 115.791 20.412C114.877 20.9907 113.841 21.28 112.683 21.28ZM113.663 18.592C114.765 18.592 115.651 18.2093 116.323 17.444C116.995 16.66 117.331 15.484 117.331 13.916C117.331 12.348 116.995 11.1813 116.323 10.416C115.651 9.65067 114.765 9.268 113.663 9.268C112.562 9.268 111.675 9.65067 111.003 10.416C110.331 11.1813 109.995 12.348 109.995 13.916C109.995 15.484 110.322 16.66 110.975 17.444C111.647 18.2093 112.543 18.592 113.663 18.592ZM124.587 21V6.86H128.087V21H124.587ZM124.391 4.2V0.783998H128.283V4.2H124.391Z" fill="white"/>
</svg>
